<?xml version="1.0" encoding="UTF-8"?>
<svg version="1.1" xmlns="http://www.w3.org/2000/svg" width="313" height="336">
<path d="M0 0 C5.2669434 0.55700179 9.1940187 2.33835217 13.8125 4.75 C14.52172607 5.11416016 15.23095215 5.47832031 15.96166992 5.85351562 C17.97896159 6.89392346 19.98973737 7.94609649 22 9 C22.8765625 9.44859375 23.753125 9.8971875 24.65625 10.359375 C35.61079569 16.15417091 44.99344627 24.28556818 54.23583984 32.44433594 C55.39080743 33.46280445 56.54985118 34.47667349 57.71337891 35.48535156 C86.89239134 60.82524328 101.56472671 96.8738201 104.80371094 134.93188477 C105.91891631 152.36321053 105.79425932 169.90842819 102 187 C101.76023438 188.10085937 101.52046875 189.20171875 101.2734375 190.3359375 C100.02247974 195.24354103 100.02247974 195.24354103 99 197 C97.26953125 197.99609375 97.26953125 197.99609375 95 198 C84.34471753 191.79200779 72.84710565 181.27065847 66 171 C66 170.01 66 169.02 66 168 C65.41476563 167.76410156 64.82953125 167.52820313 64.2265625 167.28515625 C57.18264124 163.21945433 52.61261909 152.91906442 48.5 146.0625 C48.05446777 145.32894287 47.60893555 144.59538574 47.14990234 143.83959961 C46.73949707 143.1410083 46.3290918 142.44241699 45.90625 141.72265625 C45.53822266 141.10140869 45.17019531 140.48016113 44.79101562 139.84008789 C44 138 44 138 44 134 C43.01 133.67 42.02 133.34 41 133 C39.55786133 130.86694336 39.55786133 130.86694336 38.08203125 128.08984375 C37.55029297 127.10048828 37.01855469 126.11113281 36.47070312 125.09179688 C35.64989258 123.53041992 35.64989258 123.53041992 34.8125 121.9375 C34.25369141 120.89271484 33.69488281 119.84792969 33.11914062 118.77148438 C31.73753112 116.1853948 30.36495786 113.594906 29 111 C28.7506643 112.60115576 28.52621352 114.20620159 28.3125 115.8125 C28.18488281 116.70582031 28.05726562 117.59914063 27.92578125 118.51953125 C27.73941814 121.04803471 27.73941814 121.04803471 29.41845703 122.6315918 C29.94036621 123.0831665 30.46227539 123.53474121 31 124 C31.9921875 127.08203125 31.9921875 127.08203125 32.875 130.8125 C34.49501465 137.3907413 36.56035091 143.63090118 38.94921875 149.9765625 C40 153 40 153 40.39453125 155.6484375 C41.18659185 158.72469867 42.72737677 159.80420923 45 162 C46.43347686 164.29523629 47.794219 166.58530332 49.125 168.9375 C53.51488551 176.44802746 58.48017226 183.27986637 64 190 C64.48404297 190.59232422 64.96808594 191.18464844 65.46679688 191.79492188 C71.04798157 198.5828492 76.61600473 204.97050032 83.453125 210.546875 C83.96359375 211.02640625 84.4740625 211.5059375 85 212 C85 212.66 85 213.32 85 214 C83.62521484 213.63648438 83.62521484 213.63648438 82.22265625 213.265625 C70.26108987 210.2891108 58.20860541 208.81113089 45.96704102 207.57128906 C21.12106153 204.94306882 2.00067565 193.68901831 -14.0546875 174.55078125 C-26.74020903 158.03985926 -33.88311079 137.61905074 -36 117 C-36.10957031 116.03320312 -36.21914063 115.06640625 -36.33203125 114.0703125 C-40.52171734 71.9500017 -26.32865017 32.58020181 0 0 Z M24 46 C24.58803797 49.02419525 25.22678118 52.01758453 26 55 C26.66 55 27.32 55 28 55 C29.68630119 51.48966871 29.68630119 51.48966871 29.625 47.6875 C29.41875 47.130625 29.2125 46.57375 29 46 C27.35 46 25.7 46 24 46 Z M-11 88 C-11 89.98 -11 91.96 -11 94 C-9.02 94.99 -7.04 95.98 -5 97 C-4.67 94.03 -4.34 91.06 -4 88 C-6.31 88 -8.62 88 -11 88 Z M56 88 C55.66501699 90.33165034 55.66501699 90.33165034 56 93 C57.89584109 95.31377147 57.89584109 95.31377147 60 97 C61.60414215 95.81476003 61.60414215 95.81476003 63 94 C63.25069913 91.37429296 63.25069913 91.37429296 63 89 C60.69 88.67 58.38 88.34 56 88 Z M27 104 C28 106 28 106 28 106 Z M78 124 C78 125.98 78 127.96 78 130 C78.66 130 79.32 130 80 130 C80.33 130.99 80.66 131.98 81 133 C83.40814077 129.48812804 84.36629408 127.27343092 84 123 C80.2236068 122.7018576 80.2236068 122.7018576 78 124 Z M-6 135 C-6.04080783 136.99958364 -6.04254356 139.00045254 -6 141 C-3.03 141.495 -3.03 141.495 0 142 C0 139.36 0 136.72 0 134 C-3.28930404 133.63314303 -3.28930404 133.63314303 -6 135 Z " fill="#FFFFFF" transform="translate(58,52)"/>
<path d="M0 0 C0.83680298 0.00140991 1.67360596 0.00281982 2.5357666 0.00427246 C4.59025368 0.00793726 6.64473714 0.01354151 8.69921875 0.01953125 C8.74587522 9.40885548 8.78125521 18.79813885 8.80284309 28.18755436 C8.81321219 32.54898786 8.82724322 36.91034115 8.85009766 41.27172852 C8.87207447 45.49279489 8.88383882 49.71378486 8.88897324 53.9349041 C8.89262499 55.53297564 8.89975352 57.13104374 8.91067886 58.72908211 C9.04285598 78.89275589 6.52538765 96.47514686 -4.30078125 114.01953125 C-4.67895996 114.66599609 -5.05713867 115.31246094 -5.44677734 115.97851562 C-9.68470594 122.49079408 -15.20903899 124.9595533 -22.17578125 128.01953125 C-24.42614698 129.05389218 -26.67614725 130.08904859 -28.92578125 131.125 C-30.56353516 131.8662915 -30.56353516 131.8662915 -32.234375 132.62255859 C-48.32389522 139.95251359 -64.80605649 147.63064856 -75.171875 162.515625 C-75.54441406 163.01191406 -75.91695312 163.50820312 -76.30078125 164.01953125 C-76.63078125 164.01953125 -76.96078125 164.01953125 -77.30078125 164.01953125 C-77.9916394 143.29378683 -77.65598837 118.45826527 -63.6015625 101.7890625 C-61.72227902 99.23255975 -61.02930275 96.56035413 -60.15625 93.5390625 C-58.43247393 88.46218778 -55.78018033 83.76168289 -53.30078125 79.01953125 C-62.99396943 87.05231219 -69.92928438 96.13712384 -76.63671875 106.74609375 C-77.18585938 107.49632812 -77.735 108.2465625 -78.30078125 109.01953125 C-78.96078125 109.01953125 -79.62078125 109.01953125 -80.30078125 109.01953125 C-80.39875 109.79296875 -80.49671875 110.56640625 -80.59765625 111.36328125 C-81.55152322 118.00745809 -82.70582566 123.30989591 -86.30078125 129.01953125 C-88.43359375 130.23046875 -88.43359375 130.23046875 -90.30078125 131.01953125 C-90.42453125 130.15714844 -90.54828125 129.29476562 -90.67578125 128.40625 C-92.88666932 115.32055621 -97.69862883 103.53525557 -104.046875 91.90234375 C-104.50441162 91.06348633 -104.96194824 90.22462891 -105.43334961 89.36035156 C-106.319362 87.76265023 -107.22410362 86.17513588 -108.15063477 84.60058594 C-111.10432624 79.3436528 -112.29517888 75.04622607 -111.30078125 69.01953125 C-106.25595704 55.64844703 -95.91065381 45.24668029 -86.30078125 35.01953125 C-85.65496094 34.29636719 -85.00914062 33.57320312 -84.34375 32.828125 C-63.87211719 10.75087393 -29.35461494 -0.09394171 0 0 Z M-32.30078125 39.01953125 C-31.97078125 41.32953125 -31.64078125 43.63953125 -31.30078125 46.01953125 C-29.65078125 45.68953125 -28.00078125 45.35953125 -26.30078125 45.01953125 C-25.28967032 41.97039897 -25.28967032 41.97039897 -26.30078125 39.01953125 C-28.28078125 39.01953125 -30.26078125 39.01953125 -32.30078125 39.01953125 Z M-83.30078125 55.01953125 C-83.30078125 57.65953125 -83.30078125 60.29953125 -83.30078125 63.01953125 C-81.32078125 62.35953125 -79.34078125 61.69953125 -77.30078125 61.01953125 C-77.30078125 59.03953125 -77.30078125 57.05953125 -77.30078125 55.01953125 C-80.34991353 54.00842032 -80.34991353 54.00842032 -83.30078125 55.01953125 Z M-22.30078125 76.01953125 C-22.30078125 78.32953125 -22.30078125 80.63953125 -22.30078125 83.01953125 C-20.32078125 82.68953125 -18.34078125 82.35953125 -16.30078125 82.01953125 C-15.28967032 78.97039897 -15.28967032 78.97039897 -16.30078125 76.01953125 C-18.28078125 76.01953125 -20.26078125 76.01953125 -22.30078125 76.01953125 Z " fill="#FFFFFF" transform="translate(257.30078125,32.98046875)"/>
<path d="M0 0 C1.18335938 0.29583984 1.18335938 0.29583984 2.390625 0.59765625 C3.18726563 0.79681641 3.18726563 0.79681641 4 1 C4.63408392 15.92078722 -1.73004536 30.29806064 -9 43 C-9.57878906 44.01835937 -10.15757812 45.03671875 -10.75390625 46.0859375 C-14.78730517 52.76771669 -19.61740904 58.37471572 -25 64 C-25.81082031 64.90878906 -26.62164062 65.81757813 -27.45703125 66.75390625 C-47.62640212 88.49570183 -77.81796994 92.86882161 -106 95 C-99.76991955 87.56438681 -99.76991955 87.56438681 -96.4375 84.75 C-95.43009766 83.89148438 -95.43009766 83.89148438 -94.40234375 83.015625 C-93.60957031 82.35046875 -92.81679687 81.6853125 -92 81 C-90.95926073 80.12023473 -89.91892442 79.23999261 -88.87890625 78.359375 C-87.18776406 76.92789637 -85.49627041 75.49685158 -83.80322266 74.06762695 C-76.21582823 67.73850076 -76.21582823 67.73850076 -69 61 C-68.39285156 60.72929687 -67.78570312 60.45859375 -67.16015625 60.1796875 C-64.29876744 58.61704841 -62.58238022 56.57110705 -60.4375 54.125 C-59.29087891 52.82949219 -59.29087891 52.82949219 -58.12109375 51.5078125 C-56.32727837 49.38694791 -54.6538378 47.22932965 -53 45 C-53.51908936 45.37809814 -54.03817871 45.75619629 -54.57299805 46.14575195 C-56.94294762 47.87014471 -59.3151974 49.59134599 -61.6875 51.3125 C-62.91243164 52.20485352 -62.91243164 52.20485352 -64.16210938 53.11523438 C-75.04220496 61 -75.04220496 61 -79 61 C-79.24234375 61.59167969 -79.4846875 62.18335938 -79.734375 62.79296875 C-84.85681113 71.725612 -101.58056897 78.2994152 -111 81 C-113.33212027 81.07522969 -115.6685311 81.09325876 -118 81 C-117.53788589 59.1966163 -107.85841999 37.80140719 -93 22 C-92.19691406 21.11828125 -91.39382812 20.2365625 -90.56640625 19.328125 C-68.25424241 -4.20233172 -30.1565557 -8.03897134 0 0 Z M-21 13 C-22.07136051 15.30144109 -23.07989717 17.6340213 -24 20 C-20.7 19.67 -17.4 19.34 -14 19 C-13.23043864 16.65466049 -13.23043864 16.65466049 -13 14 C-14.20918882 12.12359581 -14.20918882 12.12359581 -16 11 C-18.32357511 10.81509993 -18.32357511 10.81509993 -21 13 Z M-72 26 C-72 27.98 -72 29.96 -72 32 C-70.02 31.67 -68.04 31.34 -66 31 C-66 29.35 -66 27.7 -66 26 C-69.04913228 24.98888907 -69.04913228 24.98888907 -72 26 Z M-36 27 C-36.99 28.485 -36.99 28.485 -38 30 C-36.68 29.34 -35.36 28.68 -34 28 C-34.66 27.67 -35.32 27.34 -36 27 Z M-41 31 C-41 31.99 -41 32.98 -41 34 C-40.34 33.01 -39.68 32.02 -39 31 C-39.66 31 -40.32 31 -41 31 Z M-34 46 C-34.33 48.31 -34.66 50.62 -35 53 C-32.69 53 -30.38 53 -28 53 C-27.95745644 51.00045254 -27.95919217 48.99958364 -28 47 C-29.06645115 45.70366379 -29.06645115 45.70366379 -31.5625 45.9375 C-32.366875 45.958125 -33.17125 45.97875 -34 46 Z " fill="#FFFFFF" transform="translate(288,172)"/>
<path d="" fill="#FFFFFF" transform="translate(0,0)"/>
</svg>
